<svg id="kity_svg_6" xmlns="http://www.w3.org/2000/svg" xmlns:xlink="http://www.w3.org/1999/xlink" version="1.1" width="1524" height="803" style="background: rgb(251, 251, 251); visibility: visible;" viewBox="0 0 1524 803"><defs id="kity_defs_7"><linearGradient id="kity_linearGradient_17" x1="0" y1="0" x2="0" y2="1"><stop id="kity_stop_18" offset="0" stop-color="rgb(255, 255, 255)"></stop><stop id="kity_stop_19" offset="1" stop-color="rgb(204, 204, 204)"></stop></linearGradient><marker id="kity_marker_4" orient="auto" refX="6" refY="0" viewBox="-7 -7 14 14" markerWidth="7" markerHeight="7" markerUnits="userSpaceOnUse"><path id="kity_path_5" fill="white" stroke="none" d="M6,0A6,6,0,1,1,-6,0A6,6,0,1,1,6,0"></path></marker><marker id="kity_marker_2" orient="auto" refX="6" refY="0" viewBox="-7 -7 14 14" markerWidth="7" markerHeight="7" markerUnits="userSpaceOnUse"><path id="kity_path_3" fill="rgb(115, 161, 191)" stroke="none" d="M6,0A6,6,0,1,1,-6,0A6,6,0,1,1,6,0"></path></marker></defs><g id="kity_g_8"><g id="minder1" text-rendering="geometricPrecision"><g id="minder_connect_group1"><path id="kity_path_31" fill="none" stroke="rgb(115, 161, 191)" stroke-width="1" d="M870.0000373274088,531.5000210851431A174.5,346,0,0,1,1044.5000373274088,185.5000210851431"></path><path id="kity_path_47" fill="none" stroke="rgb(115, 161, 191)" stroke-width="1" d="M870.0000373274088,531.5000210851431A174.5,70,0,0,1,1044.5000373274088,461.5000210851431"></path><path id="kity_path_55" fill="none" stroke="rgb(115, 161, 191)" stroke-width="1" d="M870.0000373274088,531.5000210851431A204.5,183,0,0,0,665.5000373274088,348.5000210851431"></path><path id="kity_path_71" fill="none" stroke="rgb(115, 161, 191)" stroke-width="1" d="M1165.5000373274088,185.5000210851431C1180.5000373274088,185.5000210851431,1180.5000373274088,53.50002108514309,1195.5000373274088,53.50002108514309L1323.5000373274088,53.50002108514309"></path><path id="kity_path_79" fill="none" stroke="rgb(115, 161, 191)" stroke-width="1" d="M1165.5000373274088,185.5000210851431C1180.5000373274088,185.5000210851431,1180.5000373274088,113.50002108514309,1195.5000373274088,113.50002108514309L1323.5000373274088,113.50002108514309"></path><path id="kity_path_87" fill="none" stroke="rgb(115, 161, 191)" stroke-width="1" d="M1165.5000373274088,185.5000210851431C1180.5000373274088,185.5000210851431,1180.5000373274088,173.5000210851431,1195.5000373274088,173.5000210851431L1299.5000373274088,173.5000210851431"></path><path id="kity_path_95" fill="none" stroke="rgb(115, 161, 191)" stroke-width="1" d="M1165.5000373274088,185.5000210851431C1180.5000373274088,185.5000210851431,1180.5000373274088,233.5000210851431,1195.5000373274088,233.5000210851431L1300.5000373274088,233.5000210851431"></path><path id="kity_path_103" fill="none" stroke="rgb(115, 161, 191)" stroke-width="1" d="M870.0000373274088,531.5000210851431A103.5,340,0,0,0,766.5000373274088,191.5000210851431"></path><path id="kity_path_119" fill="none" stroke="rgb(115, 161, 191)" stroke-width="1" d="M1165.5000373274088,461.5000210851431C1180.5000373274088,461.5000210851431,1180.5000373274088,423.5000210851431,1195.5000373274088,423.5000210851431L1275.5000373274088,423.5000210851431"></path><path id="kity_path_135" fill="none" stroke="rgb(115, 161, 191)" stroke-width="1" d="M1165.5000373274088,461.5000210851431C1180.5000373274088,461.5000210851431,1180.5000373274088,483.5000210851431,1195.5000373274088,483.5000210851431L1347.5000373274088,483.5000210851431"></path><path id="kity_path_156" fill="none" stroke="rgb(115, 161, 191)" stroke-width="1" d="M1165.5000373274088,185.5000210851431C1180.5000373274088,185.5000210851431,1180.5000373274088,293.5000210851431,1195.5000373274088,293.5000210851431L1323.5000373274088,293.5000210851431"></path><path id="kity_path_172" fill="none" stroke="rgb(115, 161, 191)" stroke-width="1" d="M1165.5000373274088,461.5000210851431C1180.5000373274088,461.5000210851431,1180.5000373274088,535.5000210851431,1195.5000373274088,535.5000210851431L1274.5000373274088,535.5000210851431"></path><path id="kity_path_336" fill="none" stroke="rgb(115, 161, 191)" stroke-width="1" d="M870.0000373274088,531.5000210851431A189.5,40,0,0,0,1059.5000373274088,571.5000210851431"></path><path id="kity_path_408" fill="none" stroke="rgb(115, 161, 191)" stroke-width="1" d="M870.0000373274088,531.5000210851431A181.5,209,0,0,1,688.5000373274088,740.5000210851431"></path><path id="kity_path_452" fill="none" stroke="rgb(115, 161, 191)" stroke-width="1" d="M870.0000373274088,531.5000210851431A157.5,64,0,0,0,712.5000373274088,467.5000210851431"></path><path id="kity_path_566" fill="none" stroke="rgb(115, 161, 191)" stroke-width="1" d="M870.0000373274088,531.5000210851431A78.5,118,0,0,0,948.5000373274088,649.5000210851431"></path><path id="kity_path_612" fill="none" stroke="rgb(115, 161, 191)" stroke-width="1" d="M1233.5000373274088,637.5000210851431C1248.5000373274088,637.5000210851431,1248.5000373274088,637.5000210851431,1263.5000373274088,637.5000210851431L1475.5000373274088,637.5000210851431"></path><path id="kity_path_613" fill="none" stroke="rgb(115, 161, 191)" stroke-width="1" d="M1098.5000373274088,649.5000210851431C1113.5000373274088,649.5000210851431,1113.5000373274088,637.5000210851431,1128.5000373274088,637.5000210851431L1233.5000373274088,637.5000210851431"></path><path id="kity_path_614" fill="none" stroke="rgb(115, 161, 191)" stroke-width="1" d="M1098.5000373274088,649.5000210851431C1113.5000373274088,649.5000210851431,1113.5000373274088,697.5000210851431,1128.5000373274088,697.5000210851431L1234.5000373274088,697.5000210851431"></path><path id="kity_path_628" fill="none" stroke="rgb(115, 161, 191)" stroke-width="1" d="M1234.5000373274088,697.5000210851431C1257.5000373274088,697.5000210851431,1257.5000373274088,697.5000210851431,1280.5000373274088,697.5000210851431L1504.5000373274088,697.5000210851431"></path><path id="kity_path_642" fill="none" stroke="rgb(115, 161, 191)" stroke-width="1" d="M870.0000373274088,531.5000210851431A149.5,62,0,0,1,720.5000373274088,593.5000210851431"></path><path id="kity_path_649" fill="none" stroke="rgb(115, 161, 191)" stroke-width="1" d="M614.5000373274088,191.5000210851431C599.5000373274088,191.5000210851431,599.5000373274088,153.5000210851431,584.5000373274088,153.5000210851431L505.5000373274088,153.5000210851431"></path><path id="kity_path_650" fill="none" stroke="rgb(115, 161, 191)" stroke-width="1" d="M614.5000373274088,191.5000210851431C599.5000373274088,191.5000210851431,599.5000373274088,205.5000210851431,584.5000373274088,205.5000210851431L481.5000373274088,205.5000210851431"></path><path id="kity_path_651" fill="none" stroke="rgb(115, 161, 191)" stroke-width="1" d="M614.5000373274088,191.5000210851431C599.5000373274088,191.5000210851431,599.5000373274088,257.5000210851431,584.5000373274088,257.5000210851431L397.5000373274088,257.5000210851431"></path><path id="kity_path_672" fill="none" stroke="rgb(115, 161, 191)" stroke-width="1" d="M568.5000373274088,593.5000210851431C553.5000373274088,593.5000210851431,553.5000373274088,568.5000210851431,538.5000373274088,568.5000210851431L459.5000373274088,568.5000210851431"></path><path id="kity_path_688" fill="none" stroke="rgb(115, 161, 191)" stroke-width="1" d="M568.5000373274088,593.5000210851431C553.5000373274088,593.5000210851431,553.5000373274088,646.5000210851431,538.5000373274088,646.5000210851431L458.5000373274088,646.5000210851431"></path><path id="kity_path_696" fill="none" stroke="rgb(115, 161, 191)" stroke-width="1" d="M458.5000373274088,646.5000210851431C443.5000373274088,646.5000210851431,443.5000373274088,646.5000210851431,428.5000373274088,646.5000210851431L338.5000373274088,646.5000210851431"></path><path id="kity_path_704" fill="none" stroke="rgb(115, 161, 191)" stroke-width="1" d="M459.5000373274088,568.5000210851431C444.5000373274088,568.5000210851431,444.5000373274088,542.5000210851431,429.5000373274088,542.5000210851431L373.5000373274088,542.5000210851431"></path><path id="kity_path_712" fill="none" stroke="rgb(115, 161, 191)" stroke-width="1" d="M459.5000373274088,568.5000210851431C444.5000373274088,568.5000210851431,444.5000373274088,594.5000210851431,429.5000373274088,594.5000210851431L373.5000373274088,594.5000210851431"></path><path id="kity_path_719" fill="none" stroke="rgb(115, 161, 191)" stroke-width="1" d="M588.5000373274088,467.5000210851431C573.5000373274088,467.5000210851431,573.5000373274088,455.5000210851431,558.5000373274088,455.5000210851431L503.5000373274088,455.5000210851431"></path><path id="kity_path_720" fill="none" stroke="rgb(115, 161, 191)" stroke-width="1" d="M588.5000373274088,467.5000210851431C573.5000373274088,467.5000210851431,573.5000373274088,507.5000210851431,558.5000373274088,507.5000210851431L503.5000373274088,507.5000210851431"></path><path id="kity_path_721" fill="none" stroke="rgb(115, 161, 191)" stroke-width="1" d="M251.5000373274088,299.5000210851431C237.5000373274088,299.5000210851431,237.5000373274088,316.5000210851431,223.5000373274088,316.5000210851431L72.50003732740879,316.5000210851431"></path><path id="kity_path_722" fill="none" stroke="rgb(115, 161, 191)" stroke-width="1" d="M338.5000373274088,335.5000210851431C334.5000373274088,335.5000210851431,334.5000373274088,299.5000210851431,330.5000373274088,299.5000210851431L251.5000373274088,299.5000210851431"></path><path id="kity_path_723" fill="none" stroke="rgb(115, 161, 191)" stroke-width="1" d="M338.5000373274088,335.5000210851431C320.0000373274088,335.5000210851431,320.0000373274088,374.5000210851431,301.5000373274088,374.5000210851431L222.5000373274088,374.5000210851431"></path><path id="kity_path_724" fill="none" stroke="rgb(115, 161, 191)" stroke-width="1" d="M555.5000373274088,348.5000210851431C533.5000373274088,348.5000210851431,533.5000373274088,335.5000210851431,511.5000373274088,335.5000210851431L338.5000373274088,335.5000210851431"></path><path id="kity_path_725" fill="none" stroke="rgb(115, 161, 191)" stroke-width="1" d="M363.5000373274088,422.5000210851431C350.5000373274088,422.5000210851431,350.5000373274088,437.5000210851431,337.5000373274088,437.5000210851431L20.50003732740879,437.5000210851431"></path><path id="kity_path_726" fill="none" stroke="rgb(115, 161, 191)" stroke-width="1" d="M555.5000373274088,348.5000210851431C517.5000373274088,348.5000210851431,517.5000373274088,422.5000210851431,479.5000373274088,422.5000210851431L363.5000373274088,422.5000210851431"></path><path id="kity_path_727" fill="none" stroke="rgb(115, 161, 191)" stroke-width="1" d="M480.5000373274088,726.5000210851431C465.5000373274088,726.5000210851431,465.5000373274088,726.5000210851431,450.5000373274088,726.5000210851431L346.5000373274088,726.5000210851431"></path><path id="kity_path_728" fill="none" stroke="rgb(115, 161, 191)" stroke-width="1" d="M589.5000373274088,740.5000210851431C574.5000373274088,740.5000210851431,574.5000373274088,726.5000210851431,559.5000373274088,726.5000210851431L480.5000373274088,726.5000210851431"></path><path id="kity_path_729" fill="none" stroke="rgb(115, 161, 191)" stroke-width="1" d="M589.5000373274088,740.5000210851431C574.5000373274088,740.5000210851431,574.5000373274088,783.5000210851431,559.5000373274088,783.5000210851431L399.5000373274088,783.5000210851431"></path><path id="kity_path_739" fill="none" stroke="rgb(115, 161, 191)" stroke-width="1" d="M1165.5000373274088,185.5000210851431C1180.5000373274088,185.5000210851431,1180.5000373274088,353.5000210851431,1195.5000373274088,353.5000210851431L1313.5000373274088,353.5000210851431"></path><path id="kity_path_752" fill="none" stroke="rgb(115, 161, 191)" stroke-width="1" d="M1208.5000373274088,571.5000210851431C1223.5000373274088,571.5000210851431,1223.5000373274088,589.5000210851431,1238.5000373274088,589.5000210851431L1402.5000373274088,589.5000210851431"></path></g><g id="minder_node1"><path id="kity_path_406" fill="rgba(0, 0, 0, .25)" stroke="none" d="M843.5000373274088,509.5000210851431h92a27,27,0,0,1,27,27v0a27,27,0,0,1,-27,27h-92a27,27,0,0,1,-27,-27v0a27,27,0,0,1,27,-27z" display="none"></path><path id="node_outline1" fill="rgb(115, 161, 191)" stroke="rgb(115, 161, 191)" d="M818.5000373274088,511.5000210851431h103a5,5,0,0,1,5,5v30a5,5,0,0,1,-5,5h-103a5,5,0,0,1,-5,-5v-30a5,5,0,0,1,5,-5z" stroke-width="3"></path><g id="node_text1" fill="white"><text id="kity_text_22" text-rendering="inherit" font-size="16" dy=".8em" y="523.5000210851431" x="837.5000373274088">守护精灵</text></g></g><g id="kity_g_14" display="none"><path id="kity_path_15" fill="rgba(0, 92, 153, 0.5)" stroke="none" d="M599.5000373274088,403.5000210851431h108v20h-108z"></path><path id="kity_path_16" fill="none" stroke="rgb(0, 76, 128)" d="M599.5000373274088,403.5000210851431L707.5000373274088,403.5000210851431" stroke-width="1"></path></g><g id="minder_node2"><path id="kity_path_401" fill="rgba(0, 0, 0, .25)" stroke="none" d="M1060.5000456422567,174.50001077353954h103a10,10,0,0,1,10,10v12a10,10,0,0,1,-10,10h-103a10,10,0,0,1,-10,-10v-12a10,10,0,0,1,10,-10z" display="none"></path><g id="node_expander1" style="cursor: pointer;"><path id="kity_path_36" fill="white" stroke="gray" d="M1045.500043347478,185.50001077353954A6,6,0,1,1,1033.500043347478,185.50001077353954A6,6,0,1,1,1045.500043347478,185.50001077353954"></path><path id="kity_path_37" fill="none" stroke="gray" d="M1035.000043347478,185.50001077353954L1044.000043347478,185.50001077353954"></path></g><path id="node_outline2" fill="rgb(238, 243, 246)" stroke="rgb(115, 161, 191)" d="M1049.5000456422567,169.50001077353954h113a3,3,0,0,1,3,3v26a3,3,0,0,1,-3,3h-113a3,3,0,0,1,-3,-3v-26a3,3,0,0,1,3,-3z" stroke-width="1"></path><g id="node_text2" fill="black"><text id="kity_text_33" text-rendering="inherit" font-size="14" dy=".8em" y="178.50001077353954" x="1116.5000456422567">用户</text></g><g id="node_priority1"><path id="kity_path_144" fill="#840023" stroke="none" d="M1092.0000449120998,189.00001049041748c0,3.866,3.134,7,7,7h6c3.866,0,7,-3.134,7,-7V183.00001049041748H1092.0000449120998V189.00001049041748z"></path><path id="kity_path_145" fill="#FF1200" stroke="none" d="M1112.0000449120998,186.00001049041748c0,3.866,-3.134,7,-7,7H1099.0000449120998c-3.866,0,-7,-3.134,-7,-7V183.00001049041748c0,-3.866,3.134,-7,7,-7h6c3.866,0,7,3.134,7,7V186.00001049041748z" opacity="0.8"></path><text id="kity_text_146" text-rendering="geometricPrecision" x="1101.0000448971987" y="185.50001047551632" text-anchor="middle" font-style="italic" font-size="12" fill="white" dy="4">1</text></g><g id="node_progress1"><path id="kity_path_254" fill="#FFED83" stroke="none" d="M1086.000044465065,186.0000107884407A9,9,0,1,1,1068.000044465065,186.0000107884407A9,9,0,1,1,1086.000044465065,186.0000107884407"></path><path id="kity_path_255" fill="#43BC00" stroke="none" d="M1077.000044465065,186.0000107884407L1086.000044465065,186.0000107884407A9,9,0,0,1,1068.000044465065,186.0000107884407A9,9,0,0,1,1086.000044465065,186.0000107884407L1077.000044465065,186.0000107884407z"></path><path id="kity_path_256" fill="#8E8E8E" stroke="none" d="M1077.0000441670418,179.00001049041748c4.418,0,8,3.582,8,8h1c0,-5.523,-3.477,-10,-9,-10S1068.0000441670418,181.47701049041748,1068.0000441670418,187.00001049041748h1C1069.0000441670418,182.58201049041747,1072.5820441670419,179.00001049041748,1077.0000441670418,179.00001049041748z"></path><path id="kity_path_258" fill="#EEE" stroke="none" d="M1082.8120441670417,183.89601049041747l-6.75,6.75l-4.5,-4.5L1073.2500441670418,184.45901049041748l2.812,2.803l5.062,-5.053L1082.8120441670417,183.89601049041747z"></path><path id="kity_path_257" fill="url(#kity_linearGradient_17)" stroke="none" d="M1077.0000441670418,176.00001049041748C1071.4770441670419,176.00001049041748,1067.0000441670418,180.47701049041748,1067.0000441670418,186.00001049041748c0,5.523,4.477,10,10,10s10,-4.477,10,-10C1087.0000441670418,180.47701049041748,1082.5230441670417,176.00001049041748,1077.0000441670418,176.00001049041748zM1077.0000441670418,194.00001049041748c-4.418,0,-8,-3.582,-8,-8s3.582,-8,8,-8s8,3.582,8,8S1081.4180441670417,194.00001049041748,1077.0000441670418,194.00001049041748z"></path></g></g><g id="minder_node4"><path id="kity_path_402" fill="rgba(0, 0, 0, .25)" stroke="none" d="M1060.5000456422567,450.5000189989805h103a10,10,0,0,1,10,10v12a10,10,0,0,1,-10,10h-103a10,10,0,0,1,-10,-10v-12a10,10,0,0,1,10,-10z" display="none"></path><g id="node_expander3" style="cursor: pointer;"><path id="kity_path_52" fill="white" stroke="gray" d="M1045.500043347478,461.5000189989805A6,6,0,1,1,1033.500043347478,461.5000189989805A6,6,0,1,1,1045.500043347478,461.5000189989805"></path><path id="kity_path_53" fill="none" stroke="gray" d="M1035.000043347478,461.5000189989805L1044.000043347478,461.5000189989805"></path></g><path id="node_outline4" fill="rgb(238, 243, 246)" stroke="rgb(115, 161, 191)" d="M1049.5000456422567,445.5000189989805h113a3,3,0,0,1,3,3v26a3,3,0,0,1,-3,3h-113a3,3,0,0,1,-3,-3v-26a3,3,0,0,1,3,-3z" stroke-width="1"></path><g id="node_text4" fill="black"><text id="kity_text_49" text-rendering="inherit" font-size="14" dy=".8em" y="454.5000189989805" x="1116.5000456422567">警方</text></g><g id="node_priority2"><path id="kity_path_205" fill="#840023" stroke="none" d="M1092.0000449120998,465.00001871585846c0,3.866,3.134,7,7,7h6c3.866,0,7,-3.134,7,-7V459.00001871585846H1092.0000449120998V465.00001871585846z"></path><path id="kity_path_206" fill="#FF1200" stroke="none" d="M1112.0000449120998,462.00001871585846c0,3.866,-3.134,7,-7,7H1099.0000449120998c-3.866,0,-7,-3.134,-7,-7V459.00001871585846c0,-3.866,3.134,-7,7,-7h6c3.866,0,7,3.134,7,7V462.00001871585846z" opacity="0.8"></path><text id="kity_text_207" text-rendering="geometricPrecision" x="1101.0000448971987" y="461.5000187009573" text-anchor="middle" font-style="italic" font-size="12" fill="white" dy="4">1</text></g><g id="node_progress2"><path id="kity_path_260" fill="#FFED83" stroke="none" d="M1086.000044465065,462.0000190138817A9,9,0,1,1,1068.000044465065,462.0000190138817A9,9,0,1,1,1086.000044465065,462.0000190138817"></path><path id="kity_path_261" fill="#43BC00" stroke="none" d="M1077.000044465065,462.0000190138817L1086.000044465065,462.0000190138817A9,9,0,0,0,1068.6851286724634,458.5558681225959A9,9,0,0,0,1083.3640054957439,468.3639800445606L1077.000044465065,462.0000190138817z"></path><path id="kity_path_262" fill="#8E8E8E" stroke="none" d="M1077.0000441670418,455.00001871585846c4.418,0,8,3.582,8,8h1c0,-5.523,-3.477,-10,-9,-10S1068.0000441670418,457.47701871585843,1068.0000441670418,463.00001871585846h1C1069.0000441670418,458.58201871585845,1072.5820441670419,455.00001871585846,1077.0000441670418,455.00001871585846z"></path><path id="kity_path_264" fill="#EEE" stroke="none" d="M1092.812044465065,469.8960190138817l-6.75,6.75l-4.5,-4.5L1083.250044465065,470.4590190138817l2.812,2.803l5.062,-5.053L1092.812044465065,469.8960190138817z" display="none"></path><path id="kity_path_263" fill="url(#kity_linearGradient_17)" stroke="none" d="M1077.0000441670418,452.00001871585846C1071.4770441670419,452.00001871585846,1067.0000441670418,456.47701871585843,1067.0000441670418,462.00001871585846c0,5.523,4.477,10,10,10s10,-4.477,10,-10C1087.0000441670418,456.47701871585843,1082.5230441670417,452.00001871585846,1077.0000441670418,452.00001871585846zM1077.0000441670418,470.00001871585846c-4.418,0,-8,-3.582,-8,-8s3.582,-8,8,-8s8,3.582,8,8S1081.4180441670417,470.00001871585846,1077.0000441670418,470.00001871585846z"></path></g></g><g id="minder_node5" opacity="1"><path id="kity_path_404" fill="rgba(0, 0, 0, .25)" stroke="none" d="M569.5000302642584,337.5000156313181h94a10,10,0,0,1,10,10v12a10,10,0,0,1,-10,10h-94a10,10,0,0,1,-10,-10v-12a10,10,0,0,1,10,-10z" display="none"></path><g id="node_expander4" style="cursor: pointer;"><path id="kity_path_60" fill="white" stroke="gray" d="M554.5000287145376,348.5000156313181A6,6,0,1,1,542.5000287145376,348.5000156313181A6,6,0,1,1,554.5000287145376,348.5000156313181"></path><path id="kity_path_61" fill="none" stroke="gray" d="M544.0000287145376,348.5000156313181L553.0000287145376,348.5000156313181"></path></g><path id="node_outline5" fill="rgb(238, 243, 246)" stroke="rgb(115, 161, 191)" d="M558.5000302642584,332.5000156313181h102a3,3,0,0,1,3,3v26a3,3,0,0,1,-3,3h-102a3,3,0,0,1,-3,-3v-26a3,3,0,0,1,3,-3z" stroke-width="1"></path><g id="node_text5" fill="black"><text id="kity_text_57" text-rendering="inherit" font-size="14" dy=".8em" y="341.5000156313181" x="600.5000302642584">第三方</text></g><g id="node_priority4"><path id="kity_path_215" fill="#01467F" stroke="none" d="M576.0000295341015,352.00001534819603c0,3.866,3.134,7,7,7h6c3.866,0,7,-3.134,7,-7V346.00001534819603H576.0000295341015V352.00001534819603z"></path><path id="kity_path_216" fill="#0074FF" stroke="none" d="M596.0000295341015,349.00001534819603c0,3.866,-3.134,7,-7,7H583.0000295341015c-3.866,0,-7,-3.134,-7,-7V346.00001534819603c0,-3.866,3.134,-7,7,-7h6c3.866,0,7,3.134,7,7V349.00001534819603z" opacity="0.8"></path><text id="kity_text_217" text-rendering="geometricPrecision" x="585.0000295192003" y="348.50001533329487" text-anchor="middle" font-style="italic" font-size="12" fill="white" dy="4">2</text></g></g><g id="minder_node7"><g id="node_expander6" style="cursor: pointer;" display="none"><path id="kity_path_76" fill="white" stroke="gray" d="M1205.5000481158495,35.500006303191185A6,6,0,1,1,1193.5000481158495,35.500006303191185A6,6,0,1,1,1205.5000481158495,35.500006303191185"></path><path id="kity_path_77" fill="none" stroke="gray"></path></g><path id="node_outline7" fill="none" stroke="none" d="M1210.5000493377447,20.500006303191185h108a5,5,0,0,1,5,5v20a5,5,0,0,1,-5,5h-108a5,5,0,0,1,-5,-5v-20a5,5,0,0,1,5,-5z" stroke-width="3"></path><g id="node_text7" fill="black"><text id="kity_text_73" text-rendering="inherit" font-size="12" dy=".8em" y="29.500006303191185" x="1240.5000493377447">记录实时位置</text></g><g id="node_progress5"><path id="kity_path_278" fill="#FFED83" stroke="none" d="M1235.000048905611,36.000006318092346A9,9,0,1,1,1217.000048905611,36.000006318092346A9,9,0,1,1,1235.000048905611,36.000006318092346"></path><path id="kity_path_279" fill="#43BC00" stroke="none" d="M1226.000048905611,36.000006318092346L1235.000048905611,36.000006318092346A9,9,0,0,1,1217.000048905611,36.000006318092346A9,9,0,0,1,1235.000048905611,36.000006318092346L1226.000048905611,36.000006318092346z"></path><path id="kity_path_280" fill="#8E8E8E" stroke="none" d="M1226.0000486075878,29.000006020069122c4.418,0,8,3.582,8,8h1c0,-5.523,-3.477,-10,-9,-10S1217.0000486075878,31.477006020069123,1217.0000486075878,37.00000602006912h1C1218.0000486075878,32.58200602006912,1221.582048607588,29.000006020069122,1226.0000486075878,29.000006020069122z"></path><path id="kity_path_282" fill="#EEE" stroke="none" d="M1231.8120486075877,33.89600602006912l-6.75,6.75l-4.5,-4.5L1222.2500486075878,34.459006020069125l2.812,2.803l5.062,-5.053L1231.8120486075877,33.89600602006912z"></path><path id="kity_path_281" fill="url(#kity_linearGradient_17)" stroke="none" d="M1226.0000486075878,26.000006020069122C1220.477048607588,26.000006020069122,1216.0000486075878,30.477006020069123,1216.0000486075878,36.00000602006912c0,5.523,4.477,10,10,10s10,-4.477,10,-10C1236.0000486075878,30.477006020069123,1231.5230486075877,26.000006020069122,1226.0000486075878,26.000006020069122zM1226.0000486075878,44.00000602006912c-4.418,0,-8,-3.582,-8,-8s3.582,-8,8,-8s8,3.582,8,8S1230.4180486075877,44.00000602006912,1226.0000486075878,44.00000602006912z"></path></g></g><g id="minder_node8"><g id="node_expander7" style="cursor: pointer;" display="none"><path id="kity_path_84" fill="white" stroke="gray" d="M1205.5000481158495,95.50000809133053A6,6,0,1,1,1193.5000481158495,95.50000809133053A6,6,0,1,1,1205.5000481158495,95.50000809133053"></path><path id="kity_path_85" fill="none" stroke="gray"></path></g><path id="node_outline8" fill="none" stroke="none" d="M1210.5000493377447,80.50000809133053h108a5,5,0,0,1,5,5v20a5,5,0,0,1,-5,5h-108a5,5,0,0,1,-5,-5v-20a5,5,0,0,1,5,-5z" stroke-width="3"></path><g id="node_text8" fill="black"><text id="kity_text_81" text-rendering="inherit" font-size="12" dy=".8em" y="89.50000809133053" x="1240.5000493377447">记录历史位置</text></g><g id="node_progress6"><path id="kity_path_284" fill="#FFED83" stroke="none" d="M1235.000048905611,96.00000810623169A9,9,0,1,1,1217.000048905611,96.00000810623169A9,9,0,1,1,1235.000048905611,96.00000810623169"></path><path id="kity_path_285" fill="#43BC00" stroke="none" d="M1226.000048905611,96.00000810623169L1235.000048905611,96.00000810623169A9,9,0,0,1,1217.000048905611,96.00000810623169A9,9,0,0,1,1235.000048905611,96.00000810623169L1226.000048905611,96.00000810623169z"></path><path id="kity_path_286" fill="#8E8E8E" stroke="none" d="M1226.0000486075878,89.00000780820847c4.418,0,8,3.582,8,8h1c0,-5.523,-3.477,-10,-9,-10S1217.0000486075878,91.47700780820847,1217.0000486075878,97.00000780820847h1C1218.0000486075878,92.58200780820846,1221.582048607588,89.00000780820847,1226.0000486075878,89.00000780820847z"></path><path id="kity_path_288" fill="#EEE" stroke="none" d="M1231.8120486075877,93.89600780820847l-6.75,6.75l-4.5,-4.5L1222.2500486075878,94.45900780820847l2.812,2.803l5.062,-5.053L1231.8120486075877,93.89600780820847z"></path><path id="kity_path_287" fill="url(#kity_linearGradient_17)" stroke="none" d="M1226.0000486075878,86.00000780820847C1220.477048607588,86.00000780820847,1216.0000486075878,90.47700780820847,1216.0000486075878,96.00000780820847c0,5.523,4.477,10,10,10s10,-4.477,10,-10C1236.0000486075878,90.47700780820847,1231.5230486075877,86.00000780820847,1226.0000486075878,86.00000780820847zM1226.0000486075878,104.00000780820847c-4.418,0,-8,-3.582,-8,-8s3.582,-8,8,-8s8,3.582,8,8S1230.4180486075877,104.00000780820847,1226.0000486075878,104.00000780820847z"></path></g></g><g id="minder_node9"><g id="node_expander8" style="cursor: pointer;" display="none"><path id="kity_path_92" fill="white" stroke="gray" d="M1205.5000481158495,155.50000987946987A6,6,0,1,1,1193.5000481158495,155.50000987946987A6,6,0,1,1,1205.5000481158495,155.50000987946987"></path><path id="kity_path_93" fill="none" stroke="gray"></path></g><path id="node_outline9" fill="none" stroke="none" d="M1210.5000493377447,140.50000987946987h84a5,5,0,0,1,5,5v20a5,5,0,0,1,-5,5h-84a5,5,0,0,1,-5,-5v-20a5,5,0,0,1,5,-5z" stroke-width="3"></path><g id="node_text9" fill="black"><text id="kity_text_89" text-rendering="inherit" font-size="12" dy=".8em" y="149.50000987946987" x="1240.5000493377447">一键报警</text></g><g id="node_progress9"><path id="kity_path_302" fill="#FFED83" stroke="none" d="M1235.000048905611,156.00000989437103A9,9,0,1,1,1217.000048905611,156.00000989437103A9,9,0,1,1,1235.000048905611,156.00000989437103"></path><path id="kity_path_303" fill="#43BC00" stroke="none" d="M1226.000048905611,156.00000989437103L1235.000048905611,156.00000989437103A9,9,0,0,1,1217.000048905611,156.00000989437103A9,9,0,0,1,1235.000048905611,156.00000989437103L1226.000048905611,156.00000989437103z"></path><path id="kity_path_304" fill="#8E8E8E" stroke="none" d="M1226.0000486075878,149.0000095963478c4.418,0,8,3.582,8,8h1c0,-5.523,-3.477,-10,-9,-10S1217.0000486075878,151.4770095963478,1217.0000486075878,157.0000095963478h1C1218.0000486075878,152.5820095963478,1221.582048607588,149.0000095963478,1226.0000486075878,149.0000095963478z"></path><path id="kity_path_306" fill="#EEE" stroke="none" d="M1231.8120486075877,153.8960095963478l-6.75,6.75l-4.5,-4.5L1222.2500486075878,154.4590095963478l2.812,2.803l5.062,-5.053L1231.8120486075877,153.8960095963478z"></path><path id="kity_path_305" fill="url(#kity_linearGradient_17)" stroke="none" d="M1226.0000486075878,146.0000095963478C1220.477048607588,146.0000095963478,1216.0000486075878,150.4770095963478,1216.0000486075878,156.0000095963478c0,5.523,4.477,10,10,10s10,-4.477,10,-10C1236.0000486075878,150.4770095963478,1231.5230486075877,146.0000095963478,1226.0000486075878,146.0000095963478zM1226.0000486075878,164.0000095963478c-4.418,0,-8,-3.582,-8,-8s3.582,-8,8,-8s8,3.582,8,8S1230.4180486075877,164.0000095963478,1226.0000486075878,164.0000095963478z"></path></g></g><g id="minder_node10"><g id="node_expander9" style="cursor: pointer;" display="none"><path id="kity_path_100" fill="white" stroke="gray" d="M1205.5000481158495,215.50001166760921A6,6,0,1,1,1193.5000481158495,215.50001166760921A6,6,0,1,1,1205.5000481158495,215.50001166760921"></path><path id="kity_path_101" fill="none" stroke="gray"></path></g><path id="node_outline10" fill="none" stroke="none" d="M1210.5000493377447,200.50001166760921h85a5,5,0,0,1,5,5v20a5,5,0,0,1,-5,5h-85a5,5,0,0,1,-5,-5v-20a5,5,0,0,1,5,-5z" stroke-width="3"></path><g id="node_text10" fill="black"><text id="kity_text_97" text-rendering="inherit" font-size="12" dy=".8em" y="209.50001166760921" x="1240.5000493377447">报警记录</text></g><g id="node_progress10"><path id="kity_path_308" fill="#FFED83" stroke="none" d="M1235.000048905611,216.00001168251038A9,9,0,1,1,1217.000048905611,216.00001168251038A9,9,0,1,1,1235.000048905611,216.00001168251038"></path><path id="kity_path_309" fill="#43BC00" stroke="none" d="M1226.000048905611,216.00001168251038L1235.000048905611,216.00001168251038A9,9,0,0,1,1217.000048905611,216.00001168251038A9,9,0,0,1,1235.000048905611,216.00001168251038L1226.000048905611,216.00001168251038z"></path><path id="kity_path_310" fill="#8E8E8E" stroke="none" d="M1226.0000486075878,209.00001138448715c4.418,0,8,3.582,8,8h1c0,-5.523,-3.477,-10,-9,-10S1217.0000486075878,211.47701138448716,1217.0000486075878,217.00001138448715h1C1218.0000486075878,212.58201138448715,1221.582048607588,209.00001138448715,1226.0000486075878,209.00001138448715z"></path><path id="kity_path_312" fill="#EEE" stroke="none" d="M1231.8120486075877,213.89601138448714l-6.75,6.75l-4.5,-4.5L1222.2500486075878,214.45901138448716l2.812,2.803l5.062,-5.053L1231.8120486075877,213.89601138448714z"></path><path id="kity_path_311" fill="url(#kity_linearGradient_17)" stroke="none" d="M1226.0000486075878,206.00001138448715C1220.477048607588,206.00001138448715,1216.0000486075878,210.47701138448716,1216.0000486075878,216.00001138448715c0,5.523,4.477,10,10,10s10,-4.477,10,-10C1236.0000486075878,210.47701138448716,1231.5230486075877,206.00001138448715,1226.0000486075878,206.00001138448715zM1226.0000486075878,224.00001138448715c-4.418,0,-8,-3.582,-8,-8s3.582,-8,8,-8s8,3.582,8,8S1230.4180486075877,224.00001138448715,1226.0000486075878,224.00001138448715z"></path></g></g><g id="minder_node11" opacity="1"><path id="kity_path_405" fill="rgba(0, 0, 0, .25)" stroke="none" d="M628.5000320225954,180.50001095235348h142a10,10,0,0,1,10,10v12a10,10,0,0,1,-10,10h-142a10,10,0,0,1,-10,-10v-12a10,10,0,0,1,10,-10z" display="none"></path><g id="node_expander10" style="cursor: pointer;"><path id="kity_path_108" fill="white" stroke="gray" d="M613.5000304728746,191.50001095235348A6,6,0,1,1,601.5000304728746,191.50001095235348A6,6,0,1,1,613.5000304728746,191.50001095235348"></path><path id="kity_path_109" fill="none" stroke="gray" d="M603.0000304728746,191.50001095235348L612.0000304728746,191.50001095235348"></path></g><path id="node_outline11" fill="rgb(238, 243, 246)" stroke="rgb(115, 161, 191)" d="M617.5000320225954,175.50001095235348h144a3,3,0,0,1,3,3v26a3,3,0,0,1,-3,3h-144a3,3,0,0,1,-3,-3v-26a3,3,0,0,1,3,-3z" stroke-width="1"></path><g id="node_text11" fill="black"><text id="kity_text_105" text-rendering="inherit" font-size="14" dy=".8em" y="184.50001095235348" x="659.5000320225954">数据统计后台</text></g><g id="node_priority3"><path id="kity_path_210" fill="#01467F" stroke="none" d="M635.0000312924385,195.00001066923141c0,3.866,3.134,7,7,7h6c3.866,0,7,-3.134,7,-7V189.00001066923141H635.0000312924385V195.00001066923141z"></path><path id="kity_path_211" fill="#0074FF" stroke="none" d="M655.0000312924385,192.00001066923141c0,3.866,-3.134,7,-7,7H642.0000312924385c-3.866,0,-7,-3.134,-7,-7V189.00001066923141c0,-3.866,3.134,-7,7,-7h6c3.866,0,7,3.134,7,7V192.00001066923141z" opacity="0.8"></path><text id="kity_text_212" text-rendering="geometricPrecision" x="644.0000312775373" y="191.50001065433025" text-anchor="middle" font-style="italic" font-size="12" fill="white" dy="4">2</text></g></g><g id="minder_node13"><g id="node_expander12" style="cursor: pointer;" display="none"><path id="kity_path_124" fill="white" stroke="gray" d="M1205.5000481158495,405.50001733005047A6,6,0,1,1,1193.5000481158495,405.50001733005047A6,6,0,1,1,1205.5000481158495,405.50001733005047"></path><path id="kity_path_125" fill="none" stroke="gray"></path></g><path id="node_outline13" fill="none" stroke="none" d="M1210.5000493377447,390.50001733005047h60a5,5,0,0,1,5,5v20a5,5,0,0,1,-5,5h-60a5,5,0,0,1,-5,-5v-20a5,5,0,0,1,5,-5z" stroke-width="3"></path><g id="node_text13" fill="black"><text id="kity_text_121" text-rendering="inherit" font-size="12" dy=".8em" y="399.50001733005047" x="1240.5000493377447">登录</text></g><g id="node_progress7"><path id="kity_path_290" fill="#FFED83" stroke="none" d="M1235.000048905611,406.00001734495163A9,9,0,1,1,1217.000048905611,406.00001734495163A9,9,0,1,1,1235.000048905611,406.00001734495163"></path><path id="kity_path_291" fill="#43BC00" stroke="none" d="M1226.000048905611,406.00001734495163L1235.000048905611,406.00001734495163A9,9,0,0,1,1217.000048905611,406.00001734495163A9,9,0,0,1,1235.000048905611,406.00001734495163L1226.000048905611,406.00001734495163z"></path><path id="kity_path_292" fill="#8E8E8E" stroke="none" d="M1226.0000486075878,399.0000170469284c4.418,0,8,3.582,8,8h1c0,-5.523,-3.477,-10,-9,-10S1217.0000486075878,401.4770170469284,1217.0000486075878,407.0000170469284h1C1218.0000486075878,402.5820170469284,1221.582048607588,399.0000170469284,1226.0000486075878,399.0000170469284z"></path><path id="kity_path_294" fill="#EEE" stroke="none" d="M1231.8120486075877,403.8960170469284l-6.75,6.75l-4.5,-4.5L1222.2500486075878,404.4590170469284l2.812,2.803l5.062,-5.053L1231.8120486075877,403.8960170469284z"></path><path id="kity_path_293" fill="url(#kity_linearGradient_17)" stroke="none" d="M1226.0000486075878,396.0000170469284C1220.477048607588,396.0000170469284,1216.0000486075878,400.4770170469284,1216.0000486075878,406.0000170469284c0,5.523,4.477,10,10,10s10,-4.477,10,-10C1236.0000486075878,400.4770170469284,1231.5230486075877,396.0000170469284,1226.0000486075878,396.0000170469284zM1226.0000486075878,414.0000170469284c-4.418,0,-8,-3.582,-8,-8s3.582,-8,8,-8s8,3.582,8,8S1230.4180486075877,414.0000170469284,1226.0000486075878,414.0000170469284z"></path></g></g><g id="minder_node15"><g id="node_expander14" style="cursor: pointer;" display="none"><path id="kity_path_140" fill="white" stroke="gray" d="M1205.5000481158495,465.5000191181898A6,6,0,1,1,1193.5000481158495,465.5000191181898A6,6,0,1,1,1205.5000481158495,465.5000191181898"></path><path id="kity_path_141" fill="none" stroke="gray" d="M1195.0000481158495,465.5000191181898L1204.0000481158495,465.5000191181898"></path></g><path id="node_outline15" fill="none" stroke="none" d="M1210.5000493377447,450.5000191181898h132a5,5,0,0,1,5,5v20a5,5,0,0,1,-5,5h-132a5,5,0,0,1,-5,-5v-20a5,5,0,0,1,5,-5z" stroke-width="3"></path><g id="node_text15" fill="black"><text id="kity_text_137" text-rendering="inherit" font-size="12" dy=".8em" y="459.5000191181898" x="1240.5000493377447">实时获取报警通知</text></g><g id="node_progress8"><path id="kity_path_296" fill="#FFED83" stroke="none" d="M1235.000048905611,466.000019133091A9,9,0,1,1,1217.000048905611,466.000019133091A9,9,0,1,1,1235.000048905611,466.000019133091"></path><path id="kity_path_297" fill="#43BC00" stroke="none" d="M1226.000048905611,466.000019133091L1235.000048905611,466.000019133091A9,9,0,0,1,1217.000048905611,466.000019133091A9,9,0,0,1,1235.000048905611,466.000019133091L1226.000048905611,466.000019133091z"></path><path id="kity_path_298" fill="#8E8E8E" stroke="none" d="M1226.0000486075878,459.00001883506775c4.418,0,8,3.582,8,8h1c0,-5.523,-3.477,-10,-9,-10S1217.0000486075878,461.4770188350677,1217.0000486075878,467.00001883506775h1C1218.0000486075878,462.58201883506774,1221.582048607588,459.00001883506775,1226.0000486075878,459.00001883506775z"></path><path id="kity_path_300" fill="#EEE" stroke="none" d="M1231.8120486075877,463.89601883506776l-6.75,6.75l-4.5,-4.5L1222.2500486075878,464.45901883506775l2.812,2.803l5.062,-5.053L1231.8120486075877,463.89601883506776z"></path><path id="kity_path_299" fill="url(#kity_linearGradient_17)" stroke="none" d="M1226.0000486075878,456.00001883506775C1220.477048607588,456.00001883506775,1216.0000486075878,460.4770188350677,1216.0000486075878,466.00001883506775c0,5.523,4.477,10,10,10s10,-4.477,10,-10C1236.0000486075878,460.4770188350677,1231.5230486075877,456.00001883506775,1226.0000486075878,456.00001883506775zM1226.0000486075878,474.00001883506775c-4.418,0,-8,-3.582,-8,-8s3.582,-8,8,-8s8,3.582,8,8S1230.4180486075877,474.00001883506775,1226.0000486075878,474.00001883506775z"></path></g></g><g id="minder_node17"><g id="node_expander16" style="cursor: pointer;" display="none"><path id="kity_path_161" fill="white" stroke="gray" d="M1205.5000481158495,275.50001345574856A6,6,0,1,1,1193.5000481158495,275.50001345574856A6,6,0,1,1,1205.5000481158495,275.50001345574856"></path><path id="kity_path_162" fill="none" stroke="gray"></path></g><path id="node_outline17" fill="none" stroke="none" d="M1210.5000493377447,260.50001345574856h108a5,5,0,0,1,5,5v20a5,5,0,0,1,-5,5h-108a5,5,0,0,1,-5,-5v-20a5,5,0,0,1,5,-5z" stroke-width="3"></path><g id="node_text17" fill="black"><text id="kity_text_158" text-rendering="inherit" font-size="12" dy=".8em" y="269.50001345574856" x="1240.5000493377447">高危区域预警</text></g><g id="node_progress11"><path id="kity_path_314" fill="#FFED83" stroke="none" d="M1235.000048905611,276.0000134706497A9,9,0,1,1,1217.000048905611,276.0000134706497A9,9,0,1,1,1235.000048905611,276.0000134706497"></path><path id="kity_path_315" fill="#43BC00" stroke="none" d="M1226.000048905611,276.0000134706497L1235.000048905611,276.0000134706497A9,9,0,0,1,1217.000048905611,276.0000134706497A9,9,0,0,1,1235.000048905611,276.0000134706497L1226.000048905611,276.0000134706497z"></path><path id="kity_path_316" fill="#8E8E8E" stroke="none" d="M1226.0000486075878,269.0000131726265c4.418,0,8,3.582,8,8h1c0,-5.523,-3.477,-10,-9,-10S1217.0000486075878,271.47701317262647,1217.0000486075878,277.0000131726265h1C1218.0000486075878,272.5820131726265,1221.582048607588,269.0000131726265,1226.0000486075878,269.0000131726265z"></path><path id="kity_path_318" fill="#EEE" stroke="none" d="M1231.8120486075877,273.8960131726265l-6.75,6.75l-4.5,-4.5L1222.2500486075878,274.4590131726265l2.812,2.803l5.062,-5.053L1231.8120486075877,273.8960131726265z"></path><path id="kity_path_317" fill="url(#kity_linearGradient_17)" stroke="none" d="M1226.0000486075878,266.0000131726265C1220.477048607588,266.0000131726265,1216.0000486075878,270.47701317262647,1216.0000486075878,276.0000131726265c0,5.523,4.477,10,10,10s10,-4.477,10,-10C1236.0000486075878,270.47701317262647,1231.5230486075877,266.0000131726265,1226.0000486075878,266.0000131726265zM1226.0000486075878,284.0000131726265c-4.418,0,-8,-3.582,-8,-8s3.582,-8,8,-8s8,3.582,8,8S1230.4180486075877,284.0000131726265,1226.0000486075878,284.0000131726265z"></path></g></g><g id="minder_node19"><g id="node_expander18" style="cursor: pointer;" display="none"><path id="kity_path_177" fill="white" stroke="gray" d="M1205.5000481158495,521.5000207871199A6,6,0,1,1,1193.5000481158495,521.5000207871199A6,6,0,1,1,1205.5000481158495,521.5000207871199"></path><path id="kity_path_178" fill="none" stroke="gray"></path></g><path id="node_outline19" fill="none" stroke="none" d="M1210.5000485926867,510.50002078711987h59a5,5,0,0,1,5,5v12a5,5,0,0,1,-5,5h-59a5,5,0,0,1,-5,-5v-12a5,5,0,0,1,5,-5z" stroke-width="3"></path><g id="node_text19" fill="black"><text id="kity_text_174" text-rendering="inherit" font-size="12" dy=".8em" y="515.5000207871199" x="1215.5000485926867">出警导航</text></g></g><g id="minder_node29" opacity="1"><path id="kity_path_403" fill="rgba(0, 0, 0, .25)" stroke="none" d="M1075.5000460892916,560.500022277236h135a10,10,0,0,1,10,10v12a10,10,0,0,1,-10,10h-135a10,10,0,0,1,-10,-10v-12a10,10,0,0,1,10,-10z" display="none"></path><g id="node_expander28" style="cursor: pointer;"><path id="kity_path_341" fill="white" stroke="gray" d="M1060.5000437945127,571.500022277236A6,6,0,1,1,1048.5000437945127,571.500022277236A6,6,0,1,1,1060.5000437945127,571.500022277236"></path><path id="kity_path_342" fill="none" stroke="gray" d="M1050.0000437945127,571.500022277236L1059.0000437945127,571.500022277236"></path></g><path id="node_outline29" fill="rgb(238, 243, 246)" stroke="rgb(115, 161, 191)" d="M1064.5000460892916,555.500022277236h141a3,3,0,0,1,3,3v26a3,3,0,0,1,-3,3h-141a3,3,0,0,1,-3,-3v-26a3,3,0,0,1,3,-3z" stroke-width="1"></path><g id="node_text29" fill="black"><text id="kity_text_338" text-rendering="inherit" font-size="14" dy=".8em" y="564.500022277236" x="1131.5000460892916">亲友功能</text></g><g id="node_progress13"><path id="kity_path_358" fill="#FFED83" stroke="none" d="M1101.0000449120998,572.0000222921371A9,9,0,1,1,1083.0000449120998,572.0000222921371A9,9,0,1,1,1101.0000449120998,572.0000222921371"></path><path id="kity_path_359" fill="#43BC00" stroke="none" d="M1092.0000449120998,572.0000222921371L1101.0000449120998,572.0000222921371A9,9,0,0,1,1083.0000449120998,572.0000222921371A9,9,0,0,1,1101.0000449120998,572.0000222921371L1092.0000449120998,572.0000222921371z"></path><path id="kity_path_360" fill="#8E8E8E" stroke="none" d="M1092.0000446140766,565.0000219941139c4.418,0,8,3.582,8,8h1c0,-5.523,-3.477,-10,-9,-10S1083.0000446140766,567.4770219941139,1083.0000446140766,573.0000219941139h1C1084.0000446140766,568.5820219941139,1087.5820446140767,565.0000219941139,1092.0000446140766,565.0000219941139z"></path><path id="kity_path_362" fill="#EEE" stroke="none" d="M1097.8120446140765,569.8960219941139l-6.75,6.75l-4.5,-4.5L1088.2500446140766,570.4590219941139l2.812,2.803l5.062,-5.053L1097.8120446140765,569.8960219941139z"></path><path id="kity_path_361" fill="url(#kity_linearGradient_17)" stroke="none" d="M1092.0000446140766,562.0000219941139C1086.4770446140767,562.0000219941139,1082.0000446140766,566.4770219941139,1082.0000446140766,572.0000219941139c0,5.523,4.477,10,10,10s10,-4.477,10,-10C1102.0000446140766,566.4770219941139,1097.5230446140765,562.0000219941139,1092.0000446140766,562.0000219941139zM1092.0000446140766,580.0000219941139c-4.418,0,-8,-3.582,-8,-8s3.582,-8,8,-8s8,3.582,8,8S1096.4180446140765,580.0000219941139,1092.0000446140766,580.0000219941139z"></path></g><g id="node_priority5"><path id="kity_path_365" fill="#840023" stroke="none" d="M1107.0000453591347,575.0000219941139c0,3.866,3.134,7,7,7h6c3.866,0,7,-3.134,7,-7V569.0000219941139H1107.0000453591347V575.0000219941139z"></path><path id="kity_path_366" fill="#FF1200" stroke="none" d="M1127.0000453591347,572.0000219941139c0,3.866,-3.134,7,-7,7H1114.0000453591347c-3.866,0,-7,-3.134,-7,-7V569.0000219941139c0,-3.866,3.134,-7,7,-7h6c3.866,0,7,3.134,7,7V572.0000219941139z" opacity="0.8"></path><text id="kity_text_367" text-rendering="geometricPrecision" x="1116.0000453442335" y="571.5000219792128" text-anchor="middle" font-style="italic" font-size="12" fill="white" dy="4">1</text></g></g><g id="minder_node35" opacity="1"><path id="kity_path_415" fill="rgba(0, 0, 0, .25)" stroke="none" d="M603.5000305324793,731.5000273138285h85a10,10,0,0,1,10,10v8a10,10,0,0,1,-10,10h-85a10,10,0,0,1,-10,-10v-8a10,10,0,0,1,10,-10z" display="none"></path><g id="node_expander34" style="cursor: pointer;"><path id="kity_path_413" fill="white" stroke="gray" d="M699.5000330358744,740.5000273138285A6,6,0,1,1,687.5000330358744,740.5000273138285A6,6,0,1,1,699.5000330358744,740.5000273138285"></path><path id="kity_path_414" fill="none" stroke="gray" d="M689.0000330358744,740.5000273138285L698.0000330358744,740.5000273138285"></path></g><path id="node_outline35" fill="#d99594" stroke="rgb(115, 161, 191)" d="M592.5000305324793,727.5000273138285h91a3,3,0,0,1,3,3v20a3,3,0,0,1,-3,3h-91a3,3,0,0,1,-3,-3v-20a3,3,0,0,1,3,-3z" stroke-width="1"></path><g id="node_text35" fill="black"><text id="kity_text_410" text-rendering="inherit" font-size="14" dy=".8em" y="733.5000273138285" x="609.5000305324793">社会意义</text></g></g><g id="minder_node40" opacity="1"><g id="node_expander39" style="cursor: pointer;"><path id="kity_path_457" fill="white" stroke="gray" d="M723.5000337511301,467.50001917779446A6,6,0,1,1,711.5000337511301,467.50001917779446A6,6,0,1,1,723.5000337511301,467.50001917779446"></path><path id="kity_path_458" fill="none" stroke="gray" d="M713.0000337511301,467.50001917779446L722.0000337511301,467.50001917779446"></path></g><path id="node_outline40" fill="rgb(238, 243, 246)" stroke="rgb(115, 161, 191)" d="M591.500031247735,451.50001917779446h116a3,3,0,0,1,3,3v26a3,3,0,0,1,-3,3h-116a3,3,0,0,1,-3,-3v-26a3,3,0,0,1,3,-3z" stroke-width="1"></path><g id="node_text40" fill="black"><text id="kity_text_454" text-rendering="inherit" font-size="14" dy=".8em" y="460.50001917779446" x="633.500031247735">智能硬件</text></g><g id="node_priority6"><path id="kity_path_477" fill="#006300" stroke="none" d="M609.0000305175781,471.0000188946724c0,3.866,3.134,7,7,7h6c3.866,0,7,-3.134,7,-7V465.0000188946724H609.0000305175781V471.0000188946724z"></path><path id="kity_path_478" fill="#00AF00" stroke="none" d="M629.0000305175781,468.0000188946724c0,3.866,-3.134,7,-7,7H616.0000305175781c-3.866,0,-7,-3.134,-7,-7V465.0000188946724c0,-3.866,3.134,-7,7,-7h6c3.866,0,7,3.134,7,7V468.0000188946724z" opacity="0.8"></path><text id="kity_text_479" text-rendering="geometricPrecision" x="618.000030502677" y="467.50001887977123" text-anchor="middle" font-style="italic" font-size="12" fill="white" dy="4">3</text></g></g><g id="minder_node47" opacity="1"><g id="node_expander46" style="cursor: pointer;"><path id="kity_path_571" fill="white" stroke="gray" d="M1111.5000453144312,649.5000246018171A6,6,0,1,1,1099.5000453144312,649.5000246018171A6,6,0,1,1,1111.5000453144312,649.5000246018171"></path><path id="kity_path_572" fill="none" stroke="gray" d="M1101.0000453144312,649.5000246018171L1110.0000453144312,649.5000246018171"></path></g><path id="node_outline47" fill="rgb(238, 243, 246)" stroke="rgb(115, 161, 191)" d="M953.5000427812338,633.5000246018171h142a3,3,0,0,1,3,3v26a3,3,0,0,1,-3,3h-142a3,3,0,0,1,-3,-3v-26a3,3,0,0,1,3,-3z" stroke-width="1"></path><g id="node_text47" fill="black"><text id="kity_text_568" text-rendering="inherit" font-size="14" dy=".8em" y="642.5000246018171" x="1020.5000427812338">两种模式</text></g><g id="node_priority7"><path id="kity_path_575" fill="#840023" stroke="none" d="M996.0000420510769,653.0000243186951c0,3.866,3.134,7,7,7h6c3.866,0,7,-3.134,7,-7V647.0000243186951H996.0000420510769V653.0000243186951z"></path><path id="kity_path_576" fill="#FF1200" stroke="none" d="M1016.0000420510769,650.0000243186951c0,3.866,-3.134,7,-7,7H1003.0000420510769c-3.866,0,-7,-3.134,-7,-7V647.0000243186951c0,-3.866,3.134,-7,7,-7h6c3.866,0,7,3.134,7,7V650.0000243186951z" opacity="0.8"></path><text id="kity_text_577" text-rendering="geometricPrecision" x="1005.0000420361757" y="649.5000243037939" text-anchor="middle" font-style="italic" font-size="12" fill="white" dy="4">1</text></g><g id="node_progress14"><path id="kity_path_597" fill="#FFED83" stroke="none" d="M990.000041604042,650.0000246167183A9,9,0,1,1,972.000041604042,650.0000246167183A9,9,0,1,1,990.000041604042,650.0000246167183"></path><path id="kity_path_598" fill="#43BC00" stroke="none" d="M981.000041604042,650.0000246167183L990.000041604042,650.0000246167183A9,9,0,0,1,972.000041604042,650.0000246167183A9,9,0,0,1,990.000041604042,650.0000246167183L981.000041604042,650.0000246167183z"></path><path id="kity_path_599" fill="#8E8E8E" stroke="none" d="M981.0000413060188,643.0000243186951c4.418,0,8,3.582,8,8h1c0,-5.523,-3.477,-10,-9,-10S972.0000413060188,645.477024318695,972.0000413060188,651.0000243186951h1C973.0000413060188,646.5820243186951,976.5820413060188,643.0000243186951,981.0000413060188,643.0000243186951z"></path><path id="kity_path_601" fill="#EEE" stroke="none" d="M986.8120413060188,647.896024318695l-6.75,6.75l-4.5,-4.5L977.2500413060188,648.459024318695l2.812,2.803l5.062,-5.053L986.8120413060188,647.896024318695z"></path><path id="kity_path_600" fill="url(#kity_linearGradient_17)" stroke="none" d="M981.0000413060188,640.0000243186951C975.4770413060188,640.0000243186951,971.0000413060188,644.477024318695,971.0000413060188,650.0000243186951c0,5.523,4.477,10,10,10s10,-4.477,10,-10C991.0000413060188,644.477024318695,986.5230413060189,640.0000243186951,981.0000413060188,640.0000243186951zM981.0000413060188,658.0000243186951c-4.418,0,-8,-3.582,-8,-8s3.582,-8,8,-8s8,3.582,8,8S985.4180413060188,658.0000243186951,981.0000413060188,658.0000243186951z"></path></g></g><g id="minder_node50" opacity="1"><g id="node_expander49" style="cursor: pointer;" display="none"><path id="kity_path_610" fill="white" stroke="gray" d="M1273.5000501424074,623.5000238269567A6,6,0,1,1,1261.5000501424074,623.5000238269567A6,6,0,1,1,1273.5000501424074,623.5000238269567"></path><path id="kity_path_611" fill="none" stroke="gray"></path></g><path id="node_outline50" fill="none" stroke="none" d="M1278.5000506192446,612.5000238269567h192a5,5,0,0,1,5,5v12a5,5,0,0,1,-5,5h-192a5,5,0,0,1,-5,-5v-12a5,5,0,0,1,5,-5z" stroke-width="3"></path><g id="node_text50" fill="black"><text id="kity_text_607" text-rendering="inherit" font-size="12" dy=".8em" y="617.5000238269567" x="1283.5000506192446">高频获取用户位置信息，确保安全</text></g></g><g id="minder_node48"><g id="node_expander47" style="cursor: pointer;"><path id="kity_path_584" fill="white" stroke="gray" d="M1138.500046119094,619.5000237077475A6,6,0,1,1,1126.500046119094,619.5000237077475A6,6,0,1,1,1138.500046119094,619.5000237077475"></path><path id="kity_path_585" fill="none" stroke="gray" d="M1128.000046119094,619.5000237077475L1137.000046119094,619.5000237077475"></path></g><path id="node_outline48" fill="none" stroke="none" d="M1143.500047340989,604.5000237077475h85a5,5,0,0,1,5,5v20a5,5,0,0,1,-5,5h-85a5,5,0,0,1,-5,-5v-20a5,5,0,0,1,5,-5z" stroke-width="3"></path><g id="node_text48" fill="black"><text id="kity_text_581" text-rendering="inherit" font-size="12" dy=".8em" y="613.5000237077475" x="1173.500047340989">保护模式</text></g><g id="node_progress15"><path id="kity_path_616" fill="#FFED83" stroke="none" d="M1168.0000469088554,620.0000237226486A9,9,0,1,1,1150.0000469088554,620.0000237226486A9,9,0,1,1,1168.0000469088554,620.0000237226486"></path><path id="kity_path_617" fill="#43BC00" stroke="none" d="M1159.0000469088554,620.0000237226486L1168.0000469088554,620.0000237226486A9,9,0,0,1,1150.0000469088554,620.0000237226486A9,9,0,0,1,1168.0000469088554,620.0000237226486L1159.0000469088554,620.0000237226486z"></path><path id="kity_path_618" fill="#8E8E8E" stroke="none" d="M1159.0000466108322,613.0000234246254c4.418,0,8,3.582,8,8h1c0,-5.523,-3.477,-10,-9,-10S1150.0000466108322,615.4770234246254,1150.0000466108322,621.0000234246254h1C1151.0000466108322,616.5820234246254,1154.5820466108323,613.0000234246254,1159.0000466108322,613.0000234246254z"></path><path id="kity_path_620" fill="#EEE" stroke="none" d="M1164.812046610832,617.8960234246254l-6.75,6.75l-4.5,-4.5L1155.2500466108322,618.4590234246253l2.812,2.803l5.062,-5.053L1164.812046610832,617.8960234246254z"></path><path id="kity_path_619" fill="url(#kity_linearGradient_17)" stroke="none" d="M1159.0000466108322,610.0000234246254C1153.4770466108323,610.0000234246254,1149.0000466108322,614.4770234246254,1149.0000466108322,620.0000234246254c0,5.523,4.477,10,10,10s10,-4.477,10,-10C1169.0000466108322,614.4770234246254,1164.5230466108321,610.0000234246254,1159.0000466108322,610.0000234246254zM1159.0000466108322,628.0000234246254c-4.418,0,-8,-3.582,-8,-8s3.582,-8,8,-8s8,3.582,8,8S1163.418046610832,628.0000234246254,1159.0000466108322,628.0000234246254z"></path></g></g><g id="minder_node49"><g id="node_expander48" style="cursor: pointer;"><path id="kity_path_592" fill="white" stroke="gray" d="M1138.500046119094,679.5000254958868A6,6,0,1,1,1126.500046119094,679.5000254958868A6,6,0,1,1,1138.500046119094,679.5000254958868"></path><path id="kity_path_593" fill="none" stroke="gray" d="M1128.000046119094,679.5000254958868L1137.000046119094,679.5000254958868"></path></g><path id="node_outline49" fill="none" stroke="none" d="M1143.500047340989,664.5000254958868h86a5,5,0,0,1,5,5v20a5,5,0,0,1,-5,5h-86a5,5,0,0,1,-5,-5v-20a5,5,0,0,1,5,-5z" stroke-width="3"></path><g id="node_text49" fill="black"><text id="kity_text_589" text-rendering="inherit" font-size="12" dy=".8em" y="673.5000254958868" x="1173.500047340989">标准模式</text></g><g id="node_progress16"><path id="kity_path_622" fill="#FFED83" stroke="none" d="M1168.0000469088554,680.000025510788A9,9,0,1,1,1150.0000469088554,680.000025510788A9,9,0,1,1,1168.0000469088554,680.000025510788"></path><path id="kity_path_623" fill="#43BC00" stroke="none" d="M1159.0000469088554,680.000025510788L1168.0000469088554,680.000025510788A9,9,0,0,1,1150.0000469088554,680.000025510788A9,9,0,0,1,1168.0000469088554,680.000025510788L1159.0000469088554,680.000025510788z"></path><path id="kity_path_624" fill="#8E8E8E" stroke="none" d="M1159.0000466108322,673.0000252127647c4.418,0,8,3.582,8,8h1c0,-5.523,-3.477,-10,-9,-10S1150.0000466108322,675.4770252127647,1150.0000466108322,681.0000252127647h1C1151.0000466108322,676.5820252127647,1154.5820466108323,673.0000252127647,1159.0000466108322,673.0000252127647z"></path><path id="kity_path_626" fill="#EEE" stroke="none" d="M1164.812046610832,677.8960252127647l-6.75,6.75l-4.5,-4.5L1155.2500466108322,678.4590252127647l2.812,2.803l5.062,-5.053L1164.812046610832,677.8960252127647z"></path><path id="kity_path_625" fill="url(#kity_linearGradient_17)" stroke="none" d="M1159.0000466108322,670.0000252127647C1153.4770466108323,670.0000252127647,1149.0000466108322,674.4770252127647,1149.0000466108322,680.0000252127647c0,5.523,4.477,10,10,10s10,-4.477,10,-10C1169.0000466108322,674.4770252127647,1164.5230466108321,670.0000252127647,1159.0000466108322,670.0000252127647zM1159.0000466108322,688.0000252127647c-4.418,0,-8,-3.582,-8,-8s3.582,-8,8,-8s8,3.582,8,8S1163.418046610832,688.0000252127647,1159.0000466108322,688.0000252127647z"></path></g></g><g id="minder_node51" opacity="1"><g id="node_expander50" style="cursor: pointer;" display="none"><path id="kity_path_633" fill="white" stroke="gray" d="M1290.500050649047,683.5000256150961A6,6,0,1,1,1278.500050649047,683.5000256150961A6,6,0,1,1,1290.500050649047,683.5000256150961"></path><path id="kity_path_634" fill="none" stroke="gray"></path></g><path id="node_outline51" fill="none" stroke="none" d="M1295.500051125884,672.5000256150961h204a5,5,0,0,1,5,5v12a5,5,0,0,1,-5,5h-204a5,5,0,0,1,-5,-5v-12a5,5,0,0,1,5,-5z" stroke-width="3"></path><g id="node_text51" fill="black"><text id="kity_text_630" text-rendering="inherit" font-size="12" dy=".8em" y="677.5000256150961" x="1300.500051125884">教低频获取用户位置信息，保存电量</text></g></g><g id="minder_node52" opacity="1"><g id="node_expander51" style="cursor: pointer;"><path id="kity_path_647" fill="white" stroke="gray" d="M731.5000339895487,593.5000229328871A6,6,0,1,1,719.5000339895487,593.5000229328871A6,6,0,1,1,731.5000339895487,593.5000229328871"></path><path id="kity_path_648" fill="none" stroke="gray" d="M721.0000339895487,593.5000229328871L730.0000339895487,593.5000229328871"></path></g><path id="node_outline52" fill="rgb(238, 243, 246)" stroke="rgb(115, 161, 191)" d="M571.5000306516886,577.5000229328871h144a3,3,0,0,1,3,3v26a3,3,0,0,1,-3,3h-144a3,3,0,0,1,-3,-3v-26a3,3,0,0,1,3,-3z" stroke-width="1"></path><g id="node_text52" fill="black"><text id="kity_text_644" text-rendering="inherit" font-size="14" dy=".8em" y="586.5000229328871" x="613.5000306516886">其他发展方向</text></g><g id="node_priority8"><path id="kity_path_660" fill="#006300" stroke="none" d="M589.0000299215317,597.000022649765c0,3.866,3.134,7,7,7h6c3.866,0,7,-3.134,7,-7V591.000022649765H589.0000299215317V597.000022649765z"></path><path id="kity_path_661" fill="#00AF00" stroke="none" d="M609.0000299215317,594.000022649765c0,3.866,-3.134,7,-7,7H596.0000299215317c-3.866,0,-7,-3.134,-7,-7V591.000022649765c0,-3.866,3.134,-7,7,-7h6c3.866,0,7,3.134,7,7V594.000022649765z" opacity="0.8"></path><text id="kity_text_662" text-rendering="geometricPrecision" x="598.0000299066305" y="593.5000226348639" text-anchor="middle" font-style="italic" font-size="12" fill="white" dy="4">3</text></g></g><g id="kity_g_12" display="none"><path id="kity_path_13" fill="none" stroke="rgb(66, 94, 112)" d="M387.5000373274088,339.5000210851431h153a5,5,0,0,1,5,5v17a5,5,0,0,1,-5,5h-153a5,5,0,0,1,-5,-5v-17a5,5,0,0,1,5,-5z" stroke-width="5"></path></g><g id="minder_node21"><g id="node_expander20" style="cursor: pointer;" display="none"><path id="kity_path_193" fill="white" stroke="gray" d="M586.5000296682119,139.5000094026327A6,6,0,1,1,574.5000296682119,139.5000094026327A6,6,0,1,1,586.5000296682119,139.5000094026327"></path><path id="kity_path_194" fill="none" stroke="gray"></path></g><path id="node_outline21" fill="none" stroke="none" d="M510.500027731061,128.5000094026327h59a5,5,0,0,1,5,5v12a5,5,0,0,1,-5,5h-59a5,5,0,0,1,-5,-5v-12a5,5,0,0,1,5,-5z" stroke-width="3"></path><g id="node_text21" fill="black"><text id="kity_text_190" text-rendering="inherit" font-size="12" dy=".8em" y="133.5000094026327" x="515.500027731061">历史案件</text></g></g><g id="minder_node22"><g id="node_expander21" style="cursor: pointer;" display="none"><path id="kity_path_201" fill="white" stroke="gray" d="M586.5000296682119,191.50001095235348A6,6,0,1,1,574.5000296682119,191.50001095235348A6,6,0,1,1,586.5000296682119,191.50001095235348"></path><path id="kity_path_202" fill="none" stroke="gray"></path></g><path id="node_outline22" fill="none" stroke="none" d="M486.50002701580524,180.50001095235348h83a5,5,0,0,1,5,5v12a5,5,0,0,1,-5,5h-83a5,5,0,0,1,-5,-5v-12a5,5,0,0,1,5,-5z" stroke-width="3"></path><g id="node_text22" fill="black"><text id="kity_text_198" text-rendering="inherit" font-size="12" dy=".8em" y="185.50001095235348" x="491.50002701580524">用户历史轨迹</text></g></g><g id="minder_node23"><g id="node_expander22" style="cursor: pointer;" display="none"><path id="kity_path_224" fill="white" stroke="gray" d="M586.5000296682119,243.50001250207424A6,6,0,1,1,574.5000296682119,243.50001250207424A6,6,0,1,1,586.5000296682119,243.50001250207424"></path><path id="kity_path_225" fill="none" stroke="gray"></path></g><path id="node_outline23" fill="none" stroke="none" d="M402.50002451241016,232.50001250207424h167a5,5,0,0,1,5,5v12a5,5,0,0,1,-5,5h-167a5,5,0,0,1,-5,-5v-12a5,5,0,0,1,5,-5z" stroke-width="3"></path><g id="node_text23" fill="black"><text id="kity_text_221" text-rendering="inherit" font-size="12" dy=".8em" y="237.50001250207424" x="407.50002451241016">为相关部门提供数据分析支持</text></g></g><g id="minder_node54"><g id="node_expander53" style="cursor: pointer;"><path id="kity_path_677" fill="white" stroke="gray" d="M540.5000282973051,554.5000217705965A6,6,0,1,1,528.5000282973051,554.5000217705965A6,6,0,1,1,540.5000282973051,554.5000217705965"></path><path id="kity_path_678" fill="none" stroke="gray" d="M530.0000282973051,554.5000217705965L539.0000282973051,554.5000217705965"></path></g><path id="node_outline54" fill="none" stroke="none" d="M464.50002636015415,543.5000217705965h59a5,5,0,0,1,5,5v12a5,5,0,0,1,-5,5h-59a5,5,0,0,1,-5,-5v-12a5,5,0,0,1,5,-5z" stroke-width="3"></path><g id="node_text54" fill="black"><text id="kity_text_674" text-rendering="inherit" font-size="12" dy=".8em" y="548.5000217705965" x="469.50002636015415">警方窗口</text></g></g><g id="minder_node56"><g id="node_expander55" style="cursor: pointer;"><path id="kity_path_693" fill="white" stroke="gray" d="M540.5000282973051,632.5000240951777A6,6,0,1,1,528.5000282973051,632.5000240951777A6,6,0,1,1,540.5000282973051,632.5000240951777"></path><path id="kity_path_694" fill="none" stroke="gray" d="M530.0000282973051,632.5000240951777L539.0000282973051,632.5000240951777"></path></g><path id="node_outline56" fill="none" stroke="none" d="M463.50002633035183,621.5000240951777h60a5,5,0,0,1,5,5v12a5,5,0,0,1,-5,5h-60a5,5,0,0,1,-5,-5v-12a5,5,0,0,1,5,-5z" stroke-width="3"></path><g id="node_text56" fill="black"><text id="kity_text_690" text-rendering="inherit" font-size="12" dy=".8em" y="626.5000240951777" x="468.50002633035183">定向电商</text></g></g><g id="minder_node57"><g id="node_expander56" style="cursor: pointer;" display="none"><path id="kity_path_701" fill="white" stroke="gray" d="M430.50002501904964,632.5000240951777A6,6,0,1,1,418.50002501904964,632.5000240951777A6,6,0,1,1,430.50002501904964,632.5000240951777"></path><path id="kity_path_702" fill="none" stroke="gray"></path></g><path id="node_outline57" fill="none" stroke="none" d="M343.50002275407314,621.5000240951777h70a5,5,0,0,1,5,5v12a5,5,0,0,1,-5,5h-70a5,5,0,0,1,-5,-5v-12a5,5,0,0,1,5,-5z" stroke-width="3"></path><g id="node_text57" fill="black"><text id="kity_text_698" text-rendering="inherit" font-size="12" dy=".8em" y="626.5000240951777" x="348.50002275407314">防狼喷雾...</text></g></g><g id="minder_node58"><g id="node_expander57" style="cursor: pointer;" display="none"><path id="kity_path_709" fill="white" stroke="gray" d="M431.50002504885197,528.5000209957361A6,6,0,1,1,419.50002504885197,528.5000209957361A6,6,0,1,1,431.50002504885197,528.5000209957361"></path><path id="kity_path_710" fill="none" stroke="gray"></path></g><path id="node_outline58" fill="none" stroke="none" d="M378.5000237971544,517.5000209957361h36a5,5,0,0,1,5,5v12a5,5,0,0,1,-5,5h-36a5,5,0,0,1,-5,-5v-12a5,5,0,0,1,5,-5z" stroke-width="3"></path><g id="node_text58" fill="black"><text id="kity_text_706" text-rendering="inherit" font-size="12" dy=".8em" y="522.5000209957361" x="383.5000237971544">提醒</text></g></g><g id="minder_node59"><g id="node_expander58" style="cursor: pointer;" display="none"><path id="kity_path_717" fill="white" stroke="gray" d="M431.50002504885197,580.5000225454569A6,6,0,1,1,419.50002504885197,580.5000225454569A6,6,0,1,1,431.50002504885197,580.5000225454569"></path><path id="kity_path_718" fill="none" stroke="gray"></path></g><path id="node_outline59" fill="none" stroke="none" d="M378.5000237971544,569.5000225454569h36a5,5,0,0,1,5,5v12a5,5,0,0,1,-5,5h-36a5,5,0,0,1,-5,-5v-12a5,5,0,0,1,5,-5z" stroke-width="3"></path><g id="node_text59" fill="black"><text id="kity_text_714" text-rendering="inherit" font-size="12" dy=".8em" y="574.5000225454569" x="383.5000237971544">宣传</text></g></g><g id="minder_node41"><g id="node_expander40" style="cursor: pointer;" display="none"><path id="kity_path_465" fill="white" stroke="gray" d="M560.5000288933516,441.5000184029341A6,6,0,1,1,548.5000288933516,441.5000184029341A6,6,0,1,1,560.5000288933516,441.5000184029341"></path><path id="kity_path_466" fill="none" stroke="gray"></path></g><path id="node_outline41" fill="none" stroke="none" d="M508.50002767145634,430.5000184029341h35a5,5,0,0,1,5,5v12a5,5,0,0,1,-5,5h-35a5,5,0,0,1,-5,-5v-12a5,5,0,0,1,5,-5z" stroke-width="3"></path><g id="node_text41" fill="black"><text id="kity_text_462" text-rendering="inherit" font-size="12" dy=".8em" y="435.5000184029341" x="513.5000276714563">合作</text></g></g><g id="minder_node42"><g id="node_expander41" style="cursor: pointer;" display="none"><path id="kity_path_473" fill="white" stroke="gray" d="M560.5000288933516,493.50001995265484A6,6,0,1,1,548.5000288933516,493.50001995265484A6,6,0,1,1,560.5000288933516,493.50001995265484"></path><path id="kity_path_474" fill="none" stroke="gray"></path></g><path id="node_outline42" fill="none" stroke="none" d="M508.50002767145634,482.50001995265484h35a5,5,0,0,1,5,5v12a5,5,0,0,1,-5,5h-35a5,5,0,0,1,-5,-5v-12a5,5,0,0,1,5,-5z" stroke-width="3"></path><g id="node_text42" fill="black"><text id="kity_text_470" text-rendering="inherit" font-size="12" dy=".8em" y="487.50001995265484" x="513.5000276714563">自研</text></g></g><g id="minder_node34" opacity="1"><g id="node_expander33" style="cursor: pointer;" display="none"><path id="kity_path_398" fill="white" stroke="gray" d="M72.50001434981823,302.50001426041126A6,6,0,1,1,60.50001434981823,302.50001426041126A6,6,0,1,1,72.50001434981823,302.50001426041126"></path><path id="kity_path_399" fill="none" stroke="gray"></path></g><path id="node_outline34" fill="#4bacc6" stroke="none" d="M77.50001482665539,291.50001426041126h131a5,5,0,0,1,5,5v12a5,5,0,0,1,-5,5h-131a5,5,0,0,1,-5,-5v-12a5,5,0,0,1,5,-5z" stroke-width="3"></path><g id="node_text34" fill="black"><text id="kity_text_395" text-rendering="inherit" font-size="12" dy=".8em" y="296.50001426041126" x="82.50001482665539">获得平台与用户的奖励</text></g></g><g id="minder_node32" opacity="1"><g id="node_expander31" style="cursor: pointer;"><path id="kity_path_382" fill="white" stroke="gray" d="M251.50001968443394,285.5000137537718A6,6,0,1,1,239.50001968443394,285.5000137537718A6,6,0,1,1,251.50001968443394,285.5000137537718"></path><path id="kity_path_383" fill="none" stroke="gray" d="M241.00001968443394,285.5000137537718L250.00001968443394,285.5000137537718"></path></g><path id="node_outline32" fill="none" stroke="none" d="M256.5000201612711,274.5000137537718h59a5,5,0,0,1,5,5v12a5,5,0,0,1,-5,5h-59a5,5,0,0,1,-5,-5v-12a5,5,0,0,1,5,-5z" stroke-width="3"></path><g id="node_text32" fill="black"><text id="kity_text_379" text-rendering="inherit" font-size="12" dy=".8em" y="279.5000137537718" x="261.5000201612711">就近支援</text></g></g><g id="minder_node33" opacity="1"><g id="node_expander32" style="cursor: pointer;" display="none"><path id="kity_path_390" fill="white" stroke="gray" d="M222.5000188201666,360.50001598894596A6,6,0,1,1,210.5000188201666,360.50001598894596A6,6,0,1,1,222.5000188201666,360.50001598894596"></path><path id="kity_path_391" fill="none" stroke="gray"></path></g><path id="node_outline33" fill="none" stroke="none" d="M227.50001929700375,349.50001598894596h59a5,5,0,0,1,5,5v12a5,5,0,0,1,-5,5h-59a5,5,0,0,1,-5,-5v-12a5,5,0,0,1,5,-5z" stroke-width="3"></path><g id="node_text33" fill="black"><text id="kity_text_387" text-rendering="inherit" font-size="12" dy=".8em" y="354.50001598894596" x="232.50001929700375">协助警方</text></g></g><g id="minder_node26" opacity="1"><g id="node_expander25" style="cursor: pointer;"><path id="kity_path_248" fill="white" stroke="gray" d="M338.500022277236,319.0000147521496A6,6,0,1,1,326.500022277236,319.0000147521496A6,6,0,1,1,338.500022277236,319.0000147521496"></path><path id="kity_path_249" fill="none" stroke="gray" d="M328.000022277236,319.0000147521496L337.000022277236,319.0000147521496"></path></g><path id="node_outline26" fill="none" stroke="none" d="M343.50002275407314,305.5000147372484h153a5,5,0,0,1,5,5v17a5,5,0,0,1,-5,5h-153a5,5,0,0,1,-5,-5v-17a5,5,0,0,1,5,-5z" stroke-width="3"></path><g id="node_text26" fill="black"><text id="kity_text_245" text-rendering="inherit" font-size="12" dy=".8em" y="312.5000147372484" x="348.50002275407314">获得认证的第三方个人</text></g><g id="kity_g_250" style="cursor: pointer;"><path id="kity_path_251" fill="none" stroke="none" d="M478.0000265389681,310.0000147372484h12a2,2,0,0,1,2,2v13a2,2,0,0,1,-2,2h-12a2,2,0,0,1,-2,-2v-13a2,2,0,0,1,2,-2z"></path><path id="kity_path_252" fill="black" stroke="none" d="M487.0000266134739,321.0000145435333H481.0000266134739V320.0000145435333h6L487.0000266134739,321.0000145435333L487.0000266134739,321.0000145435333zM487.0000266134739,319.0000145435333H481.0000266134739V318.0000145435333h6V319.0000145435333zM487.0000266134739,317.0000145435333H481.0000266134739V316.0000145435333h6V317.0000145435333zM486.5000266134739,323.0000145435333H480.0000266134739V314.0000145435333h8v7.5M487.0000266134739,324.0000145435333l2,-2V313.0000145435333H479.0000266134739v11"></path></g></g><g id="minder_node44" opacity="1"><g id="node_expander43" style="cursor: pointer;" display="none"><path id="kity_path_526" fill="white" stroke="gray" d="M20.500012800097466,421.00001779198647A6,6,0,1,1,8.500012800097466,421.00001779198647A6,6,0,1,1,20.500012800097466,421.00001779198647"></path><path id="kity_path_527" fill="none" stroke="gray"></path></g><path id="node_outline44" fill="none" stroke="none" d="M25.500013276934624,407.5000177770853h297a5,5,0,0,1,5,5v17a5,5,0,0,1,-5,5h-297a5,5,0,0,1,-5,-5v-17a5,5,0,0,1,5,-5z" stroke-width="3"></path><g id="node_text44" fill="black"><text id="kity_text_523" text-rendering="inherit" font-size="12" dy=".8em" y="414.5000177770853" x="30.500013276934624">和运营商合作基于地理位置通过基站广播求助信息</text></g><g id="kity_g_528" style="cursor: pointer;"><path id="kity_path_529" fill="none" stroke="none" d="M304.000021353364,412.0000177770853h12a2,2,0,0,1,2,2v13a2,2,0,0,1,-2,2h-12a2,2,0,0,1,-2,-2v-13a2,2,0,0,1,2,-2z"></path><path id="kity_path_530" fill="black" stroke="none" d="M313.0000214278698,423.0000175833702H307.0000214278698V422.0000175833702h6L313.0000214278698,423.0000175833702L313.0000214278698,423.0000175833702zM313.0000214278698,421.0000175833702H307.0000214278698V420.0000175833702h6V421.0000175833702zM313.0000214278698,419.0000175833702H307.0000214278698V418.0000175833702h6V419.0000175833702zM312.5000214278698,425.0000175833702H306.0000214278698V416.0000175833702h8v7.5M313.0000214278698,426.0000175833702l2,-2V415.0000175833702H305.0000214278698v11"></path></g></g><g id="minder_node43" opacity="1"><g id="node_expander42" style="cursor: pointer;"><path id="kity_path_518" fill="white" stroke="gray" d="M363.50002302229404,408.50001741945744A6,6,0,1,1,351.50002302229404,408.50001741945744A6,6,0,1,1,363.50002302229404,408.50001741945744"></path><path id="kity_path_519" fill="none" stroke="gray" d="M353.00002302229404,408.50001741945744L362.00002302229404,408.50001741945744"></path></g><path id="node_outline43" fill="none" stroke="none" d="M368.5000234991312,397.50001741945744h96a5,5,0,0,1,5,5v12a5,5,0,0,1,-5,5h-96a5,5,0,0,1,-5,-5v-12a5,5,0,0,1,5,-5z" stroke-width="3"></path><g id="node_text43" fill="black"><text id="kity_text_515" text-rendering="inherit" font-size="12" dy=".8em" y="402.50001741945744" x="373.5000234991312">社会团体与组织</text></g></g><g id="minder_node46"><g id="node_expander45" style="cursor: pointer;" display="none"><path id="kity_path_563" fill="white" stroke="gray" d="M452.50002567470074,712.5000264793634A6,6,0,1,1,440.50002567470074,712.5000264793634A6,6,0,1,1,452.50002567470074,712.5000264793634"></path><path id="kity_path_564" fill="none" stroke="gray"></path></g><path id="node_outline46" fill="none" stroke="none" d="M351.5000229924917,701.5000264793634h84a5,5,0,0,1,5,5v12a5,5,0,0,1,-5,5h-84a5,5,0,0,1,-5,-5v-12a5,5,0,0,1,5,-5z" stroke-width="3"></path><g id="node_text46" fill="black"><text id="kity_text_560" text-rendering="inherit" font-size="12" dy=".8em" y="706.5000264793634" x="356.5000229924917">提高犯罪成本</text></g></g><g id="minder_node37"><g id="node_expander36" style="cursor: pointer;"><path id="kity_path_430" fill="white" stroke="gray" d="M561.5000289231539,712.5000264793634A6,6,0,1,1,549.5000289231539,712.5000264793634A6,6,0,1,1,561.5000289231539,712.5000264793634"></path><path id="kity_path_431" fill="none" stroke="gray" d="M551.0000289231539,712.5000264793634L560.0000289231539,712.5000264793634"></path></g><path id="node_outline37" fill="none" stroke="none" d="M485.5000269860029,701.5000264793634h59a5,5,0,0,1,5,5v12a5,5,0,0,1,-5,5h-59a5,5,0,0,1,-5,-5v-12a5,5,0,0,1,5,-5z" stroke-width="3"></path><g id="node_text37" fill="black"><text id="kity_text_427" text-rendering="inherit" font-size="12" dy=".8em" y="706.5000264793634" x="490.5000269860029">威慑罪犯</text></g></g><g id="minder_node39"><g id="node_expander38" style="cursor: pointer;" display="none"><path id="kity_path_446" fill="white" stroke="gray" d="M561.5000289231539,767.00002810359A6,6,0,1,1,549.5000289231539,767.00002810359A6,6,0,1,1,561.5000289231539,767.00002810359"></path><path id="kity_path_447" fill="none" stroke="gray"></path></g><path id="node_outline39" fill="none" stroke="none" d="M404.5000245720148,753.5000280886889h140a5,5,0,0,1,5,5v17a5,5,0,0,1,-5,5h-140a5,5,0,0,1,-5,-5v-17a5,5,0,0,1,5,-5z" stroke-width="3"></path><g id="node_text39" fill="black"><text id="kity_text_443" text-rendering="inherit" font-size="12" dy=".8em" y="760.5000280886889" x="409.5000245720148">为什么做这样的产品</text></g><g id="kity_g_448" style="cursor: pointer;"><path id="kity_path_449" fill="none" stroke="none" d="M526.0000279694796,758.0000280886889h12a2,2,0,0,1,2,2v13a2,2,0,0,1,-2,2h-12a2,2,0,0,1,-2,-2v-13a2,2,0,0,1,2,-2z"></path><path id="kity_path_450" fill="black" stroke="none" d="M535.0000280439854,769.0000278949738H529.0000280439854V768.0000278949738h6L535.0000280439854,769.0000278949738L535.0000280439854,769.0000278949738zM535.0000280439854,767.0000278949738H529.0000280439854V766.0000278949738h6V767.0000278949738zM535.0000280439854,765.0000278949738H529.0000280439854V764.0000278949738h6V765.0000278949738zM534.5000280439854,771.0000278949738H528.0000280439854V762.0000278949738h8v7.5M535.0000280439854,772.0000278949738l2,-2V761.0000278949738H527.0000280439854v11"></path></g></g><g id="minder_node61"><g id="node_expander60" style="cursor: pointer;" display="none"><path id="kity_path_744" fill="white" stroke="gray" d="M1205.5000481158495,335.5000152438879A6,6,0,1,1,1193.5000481158495,335.5000152438879A6,6,0,1,1,1205.5000481158495,335.5000152438879"></path><path id="kity_path_745" fill="none" stroke="gray"></path></g><path id="node_outline61" fill="none" stroke="none" d="M1210.5000493377447,320.5000152438879h98a5,5,0,0,1,5,5v20a5,5,0,0,1,-5,5h-98a5,5,0,0,1,-5,-5v-20a5,5,0,0,1,5,-5z" stroke-width="3"></path><g id="node_text61" fill="black"><text id="kity_text_741" text-rendering="inherit" font-size="12" dy=".8em" y="329.5000152438879" x="1240.5000493377447">报警后录音</text></g><g id="node_progress17"><path id="kity_path_747" fill="#FFED83" stroke="none" d="M1235.000048905611,336.00001525878906A9,9,0,1,1,1217.000048905611,336.00001525878906A9,9,0,1,1,1235.000048905611,336.00001525878906"></path><path id="kity_path_748" fill="#43BC00" stroke="none" d="M1226.000048905611,336.00001525878906L1235.000048905611,336.00001525878906A9,9,0,0,1,1217.000048905611,336.00001525878906A9,9,0,0,1,1235.000048905611,336.00001525878906L1226.000048905611,336.00001525878906z"></path><path id="kity_path_749" fill="#8E8E8E" stroke="none" d="M1226.0000486075878,329.00001496076584c4.418,0,8,3.582,8,8h1c0,-5.523,-3.477,-10,-9,-10S1217.0000486075878,331.4770149607658,1217.0000486075878,337.00001496076584h1C1218.0000486075878,332.58201496076583,1221.582048607588,329.00001496076584,1226.0000486075878,329.00001496076584z"></path><path id="kity_path_751" fill="#EEE" stroke="none" d="M1231.8120486075877,333.89601496076585l-6.75,6.75l-4.5,-4.5L1222.2500486075878,334.45901496076584l2.812,2.803l5.062,-5.053L1231.8120486075877,333.89601496076585z"></path><path id="kity_path_750" fill="url(#kity_linearGradient_17)" stroke="none" d="M1226.0000486075878,326.00001496076584C1220.477048607588,326.00001496076584,1216.0000486075878,330.4770149607658,1216.0000486075878,336.00001496076584c0,5.523,4.477,10,10,10s10,-4.477,10,-10C1236.0000486075878,330.4770149607658,1231.5230486075877,326.00001496076584,1226.0000486075878,326.00001496076584zM1226.0000486075878,344.00001496076584c-4.418,0,-8,-3.582,-8,-8s3.582,-8,8,-8s8,3.582,8,8S1230.4180486075877,344.00001496076584,1226.0000486075878,344.00001496076584z"></path></g></g><g id="minder_node30"><g id="node_expander29" style="cursor: pointer;" display="none"><path id="kity_path_349" fill="white" stroke="gray" d="M1248.5000493973494,571.500022277236A6,6,0,1,1,1236.5000493973494,571.500022277236A6,6,0,1,1,1248.5000493973494,571.500022277236"></path><path id="kity_path_350" fill="none" stroke="gray"></path></g><path id="node_outline30" fill="none" stroke="none" d="M1253.5000506192446,556.500022277236h144a5,5,0,0,1,5,5v20a5,5,0,0,1,-5,5h-144a5,5,0,0,1,-5,-5v-20a5,5,0,0,1,5,-5z" stroke-width="3"></path><g id="node_text30" fill="black"><text id="kity_text_346" text-rendering="inherit" font-size="12" dy=".8em" y="565.500022277236" x="1283.5000506192446">用户报警时通知亲友</text></g><g id="node_progress12"><path id="kity_path_352" fill="#FFED83" stroke="none" d="M1278.000050187111,572.0000222921371A9,9,0,1,1,1260.000050187111,572.0000222921371A9,9,0,1,1,1278.000050187111,572.0000222921371"></path><path id="kity_path_353" fill="#43BC00" stroke="none" d="M1269.000050187111,572.0000222921371L1278.000050187111,572.0000222921371A9,9,0,0,1,1260.000050187111,572.0000222921371A9,9,0,0,1,1278.000050187111,572.0000222921371L1269.000050187111,572.0000222921371z"></path><path id="kity_path_354" fill="#8E8E8E" stroke="none" d="M1269.0000498890877,565.0000219941139c4.418,0,8,3.582,8,8h1c0,-5.523,-3.477,-10,-9,-10S1260.0000498890877,567.4770219941139,1260.0000498890877,573.0000219941139h1C1261.0000498890877,568.5820219941139,1264.5820498890878,565.0000219941139,1269.0000498890877,565.0000219941139z"></path><path id="kity_path_356" fill="#EEE" stroke="none" d="M1274.8120498890876,569.8960219941139l-6.75,6.75l-4.5,-4.5L1265.2500498890877,570.4590219941139l2.812,2.803l5.062,-5.053L1274.8120498890876,569.8960219941139z"></path><path id="kity_path_355" fill="url(#kity_linearGradient_17)" stroke="none" d="M1269.0000498890877,562.0000219941139C1263.4770498890878,562.0000219941139,1259.0000498890877,566.4770219941139,1259.0000498890877,572.0000219941139c0,5.523,4.477,10,10,10s10,-4.477,10,-10C1279.0000498890877,566.4770219941139,1274.5230498890876,562.0000219941139,1269.0000498890877,562.0000219941139zM1269.0000498890877,580.0000219941139c-4.418,0,-8,-3.582,-8,-8s3.582,-8,8,-8s8,3.582,8,8S1273.4180498890876,580.0000219941139,1269.0000498890877,580.0000219941139z"></path></g></g></g></g></svg>